<?xml version="1.0" encoding="utf-8"?>
<!-- Generator: Adobe Illustrator 23.0.1, SVG Export Plug-In . SVG Version: 6.00 Build 0)  -->
<svg version="1.1" id="Layer_1" xmlns="http://www.w3.org/2000/svg" xmlns:xlink="http://www.w3.org/1999/xlink" x="0px" y="0px"
	 viewBox="0 0 1920 1080" style="enable-background:new 0 0 1920 1080;" xml:space="preserve">
<style type="text/css">
	.st0{fill:#3C52A3;}
	.st1{fill-rule:evenodd;clip-rule:evenodd;fill:#3C52A3;}
	.st2{fill-rule:evenodd;clip-rule:evenodd;fill:#FFFFFF;}
	.st3{opacity:0.21;fill-rule:evenodd;clip-rule:evenodd;fill:#3C52A3;}
	.st4{fill:#FFFFFF;}
</style>
<g>
	<path class="st0" d="M903.02,778.31c0,1.49-0.56,3.59-1.68,6.28c-1.12,2.69-2.69,5.33-4.73,7.9c-2.03,2.57-4.48,4.81-7.34,6.72
		c-2.86,1.91-6.03,2.86-9.52,2.86c-0.83,0-1.87-0.06-3.11-0.19s-2.47-0.44-3.67-0.93c-1.2-0.5-2.22-1.2-3.05-2.11
		c-0.83-0.91-1.24-2.11-1.24-3.61c0-0.75,0.37-1.8,1.12-3.17s1.55-2.84,2.43-4.42s1.68-3.11,2.43-4.6c0.75-1.49,1.12-2.74,1.12-3.73
		c0-2.82-1.99-4.87-5.97-6.16s-10.66-1.93-20.03-1.93c-9.37,0.33-17.83,0.89-25.37,1.68c-7.55,0.79-14.51,1.78-20.9,2.99
		c-6.39,1.2-12.36,2.59-17.91,4.17c-5.56,1.58-11.03,3.25-16.42,5.04c-5.39,1.78-10.84,3.69-16.36,5.72
		c-5.52,2.03-11.38,4.08-17.6,6.16c-0.58,0.17-1.14,0.33-1.68,0.5c-0.54,0.17-1.02,0.25-1.43,0.25c-1.33,0-2.53-0.29-3.61-0.87
		c-1.08-0.58-2.01-1.37-2.8-2.36c-0.79-1-1.41-2.11-1.87-3.36c-0.46-1.24-0.68-2.53-0.68-3.86c0-2.16,1.74-4.58,5.22-7.28
		c3.48-2.69,8.25-5.41,14.3-8.15c6.05-2.74,13.18-5.41,21.39-8.02c8.21-2.61,17.06-4.93,26.56-6.97c9.49-2.03,19.4-3.65,29.73-4.85
		c10.32-1.2,20.63-1.8,30.91-1.8c8.87,0,16.54,0.7,23.01,2.11c6.47,1.41,11.82,3.36,16.04,5.85c4.23,2.49,7.38,5.45,9.45,8.89
		C901.86,770.5,902.94,774.25,903.02,778.31z M757.62,923.83c-1.24,2.49-2.74,4.68-4.48,6.59c-1.74,1.91-3.61,3.48-5.6,4.73
		c-1.99,1.24-4.02,2.18-6.09,2.8c-2.07,0.62-4.02,0.93-5.85,0.93c-2.66,0-4.89-0.68-6.72-2.05c-1.82-1.37-2.74-3.38-2.74-6.03
		c0-0.91,0.1-1.93,0.31-3.05c0.21-1.12,0.64-2.34,1.31-3.67c6.3-13.02,12.58-25.54,18.84-37.56c6.26-12.02,12.31-23.26,18.16-33.71
		c5.85-10.45,11.38-19.96,16.6-28.55s9.97-15.92,14.24-22.02c4.27-6.09,7.92-10.8,10.95-14.12c3.03-3.32,5.24-4.98,6.65-4.98
		c2.9,0,5.06,0.83,6.47,2.49c1.41,1.66,2.11,3.61,2.11,5.85c0,1.82-0.46,3.65-1.37,5.47c-2.07,4.23-4.42,9.02-7.03,14.37
		s-5.37,11.03-8.27,17.04c-2.9,6.01-5.93,12.23-9.08,18.66c-3.15,6.43-6.26,12.81-9.33,19.15c-3.07,6.34-6.08,12.48-9.02,18.41
		c-2.94,5.93-5.68,11.42-8.21,16.48c-2.53,5.06-4.81,9.56-6.84,13.5C760.62,918.51,758.94,921.6,757.62,923.83z"/>
	<path class="st0" d="M886.97,839.13c6.88,0,12.02,1.66,15.42,4.98c3.4,3.32,5.1,7.92,5.1,13.81c0,3.48-0.91,7.13-2.74,10.95
		c-1.82,3.81-4.98,7.69-9.45,11.63c-4.48,3.94-10.47,7.96-17.97,12.06c-7.51,4.1-16.9,8.23-28.17,12.38c0.41,2.4,1.7,4.29,3.86,5.66
		c2.16,1.37,5.02,2.05,8.58,2.05c3.81,0,7.9-0.56,12.25-1.68c4.35-1.12,8.66-2.55,12.94-4.29c4.27-1.74,8.44-3.63,12.5-5.66
		c4.06-2.03,7.73-3.96,11.01-5.78c3.28-1.82,6.01-3.4,8.21-4.73c2.2-1.33,3.67-2.16,4.42-2.49c0.75-0.5,1.43-0.79,2.05-0.87
		c0.62-0.08,1.18-0.12,1.68-0.12c1,0,1.82,0.23,2.49,0.68c0.66,0.46,1.22,0.99,1.68,1.62c0.45,0.62,0.77,1.29,0.93,1.99
		c0.17,0.7,0.25,1.31,0.25,1.8c0,0.75-0.08,1.64-0.25,2.67c-0.17,1.04-0.79,2.22-1.87,3.54c-0.42,0.41-1.8,1.53-4.17,3.36
		c-2.36,1.82-5.41,3.98-9.14,6.47c-3.73,2.49-8.07,5.12-13,7.9c-4.93,2.78-10.16,5.33-15.67,7.65c-5.52,2.32-11.26,4.25-17.23,5.78
		c-5.97,1.53-11.86,2.3-17.66,2.3c-4.98,0-9.39-0.95-13.25-2.86s-7.13-4.48-9.83-7.71c-2.69-3.23-4.75-6.97-6.16-11.19
		c-1.41-4.23-2.11-8.67-2.11-13.31c0-3.57,0.7-7.48,2.11-11.75c1.41-4.27,3.44-8.56,6.09-12.87c2.65-4.31,5.91-8.52,9.76-12.62
		c3.86-4.1,8.19-7.73,13-10.88c4.81-3.15,10.09-5.68,15.86-7.59C874.27,840.09,880.42,839.13,886.97,839.13z M882.5,856.3
		c-0.42-0.08-0.79-0.12-1.12-0.12c-0.33,0-0.7,0-1.12,0c-3.15,0-6.09,0.62-8.83,1.87c-2.74,1.24-5.24,2.88-7.52,4.91
		c-2.28,2.03-4.31,4.33-6.09,6.9c-1.78,2.57-3.38,5.12-4.79,7.65c-1.41,2.53-2.59,4.95-3.54,7.28c-0.95,2.32-1.68,4.27-2.18,5.85
		c2.9-1.49,5.91-3.19,9.02-5.1c3.11-1.91,6.03-3.73,8.77-5.47c2.74-1.74,5.12-3.32,7.15-4.73c2.03-1.41,3.46-2.36,4.29-2.86
		c3.73-2.32,6.3-4.5,7.71-6.53c1.41-2.03,2.11-3.79,2.11-5.29c0-1.24-0.39-2.24-1.18-2.99C884.38,856.92,883.49,856.46,882.5,856.3z
		"/>
	<path class="st0" d="M952.27,866c3.15-3.23,6.49-6.45,10.01-9.64c3.52-3.19,7.21-6.05,11.07-8.58s7.9-4.58,12.13-6.16
		c4.23-1.58,8.66-2.36,13.31-2.36c2.74,0,5.55,0.31,8.46,0.93c2.9,0.62,5.53,1.64,7.9,3.05c2.36,1.41,4.29,3.23,5.78,5.47
		s2.24,4.98,2.24,8.21c0,5.31-1.22,10.12-3.67,14.43c-2.45,4.31-5.62,8.17-9.52,11.57c-3.9,3.4-8.23,6.41-13,9.02
		c-4.77,2.61-9.43,4.83-13.99,6.65c-1.16,0.5-2.24,1.14-3.23,1.93c-0.99,0.79-1.85,1.62-2.55,2.49c-0.7,0.87-1.26,1.74-1.68,2.61
		c-0.42,0.87-0.62,1.6-0.62,2.18c0,1,0.31,1.84,0.93,2.55c0.62,0.7,1.72,1.06,3.3,1.06c3.07,0,6.55-0.62,10.45-1.87
		c3.9-1.24,8.44-3.13,13.62-5.66c5.18-2.53,11.11-5.74,17.79-9.64c6.67-3.9,14.37-8.5,23.07-13.81c1.41-0.83,2.74-1.24,3.98-1.24
		c1.57,0,2.82,0.58,3.73,1.74c0.91,1.16,1.37,2.69,1.37,4.6c0,2.32-0.85,4.95-2.55,7.9c-1.7,2.94-4.54,5.74-8.52,8.4
		c-5.56,3.4-11.24,6.92-17.04,10.57c-5.8,3.65-11.77,6.99-17.91,10.01c-6.14,3.03-12.44,5.51-18.91,7.46
		c-6.47,1.95-13.1,2.92-19.9,2.92c-11.77,0-17.66-5.1-17.66-15.3c0-5.39,1.14-10.14,3.42-14.24c2.28-4.1,5.06-7.69,8.33-10.76
		c3.28-3.07,6.7-5.7,10.26-7.9c3.56-2.2,6.63-4.17,9.2-5.91c1.99-1.16,3.86-2.4,5.6-3.73c1.74-1.33,3.3-2.69,4.66-4.1
		c1.37-1.41,2.44-2.84,3.23-4.29c0.79-1.45,1.18-2.92,1.18-4.42c0-2.4-1.12-3.61-3.36-3.61c-8.29,0-19.9,8-34.83,24.01
		c-3.4,3.65-6.51,7.19-9.33,10.63c-2.82,3.44-5.45,6.82-7.9,10.14c-2.45,3.32-4.79,6.53-7.03,9.64s-4.44,6.07-6.59,8.89
		c-6.47,7.3-12.23,10.95-17.29,10.95c-2.41,0-4.15-0.44-5.22-1.31s-1.62-2.51-1.62-4.91c0-0.33,0-0.66,0-0.99s0.04-0.7,0.12-1.12
		c0.17-1.66,0.87-4.19,2.11-7.59c1.24-3.4,2.8-7.26,4.66-11.57c1.87-4.31,3.94-8.91,6.22-13.81c2.28-4.89,4.54-9.68,6.78-14.37
		c2.24-4.68,4.35-9.08,6.34-13.18c1.99-4.1,3.65-7.52,4.98-10.26l39.3-80.22c0.5-1.08,1.26-2.11,2.3-3.11c1.04-1,2.2-1.89,3.48-2.67
		c1.29-0.79,2.65-1.41,4.1-1.87c1.45-0.46,2.92-0.68,4.42-0.68c3.73,0,6.32,0.7,7.77,2.11c1.45,1.41,2.18,3.11,2.18,5.1
		c0,1.82-0.44,3.73-1.31,5.72c-0.87,1.99-1.89,3.86-3.05,5.6c-3.48,6.22-6.95,12.83-10.39,19.84c-3.44,7.01-6.86,14.12-10.26,21.33
		c-3.4,7.21-6.84,14.32-10.32,21.33C959.36,853.17,955.84,859.78,952.27,866z"/>
	<path class="st0" d="M1073.79,859.65c5.06,2.65,9.58,5.68,13.56,9.08c3.98,3.4,7.36,6.99,10.14,10.76
		c2.78,3.77,4.89,7.61,6.34,11.51s2.18,7.71,2.18,11.44c0,4.73-1.35,8.98-4.04,12.75c-2.69,3.77-6.22,6.97-10.57,9.58
		c-4.35,2.61-9.33,4.6-14.93,5.97s-11.26,2.05-16.98,2.05c-4.31,0-8.5-0.48-12.56-1.43c-4.06-0.95-7.77-2.43-11.13-4.42
		s-6.24-4.54-8.64-7.65s-4.1-6.82-5.1-11.13c-0.17-0.66-0.25-1.2-0.25-1.62c0-2.24,0.79-4.17,2.36-5.78s3.32-2.43,5.22-2.43
		c0.91,0,1.93,0.17,3.05,0.5s1.97,1.08,2.55,2.24c1.08,1.99,2.59,3.77,4.54,5.35c1.95,1.58,4.12,2.92,6.53,4.04
		c2.4,1.12,4.95,1.99,7.65,2.61c2.69,0.62,5.33,0.93,7.9,0.93c2.65,0,5.2-0.25,7.65-0.75c2.45-0.5,4.6-1.29,6.47-2.36
		c1.87-1.08,3.34-2.45,4.42-4.1c1.08-1.66,1.62-3.69,1.62-6.09c0-4.23-0.95-8.13-2.86-11.69s-4.37-6.86-7.4-9.89
		c-3.03-3.03-6.47-5.85-10.32-8.46c-3.86-2.61-7.69-5.12-11.5-7.52c-0.42-0.25-1.04-0.97-1.87-2.18c-0.83-1.2-1.24-2.43-1.24-3.67
		c0-0.99,0.25-1.78,0.75-2.36c1.32-1.74,2.86-3.52,4.6-5.35c1.74-1.82,3.61-3.5,5.6-5.04c1.99-1.53,4.15-2.78,6.47-3.73
		c2.32-0.95,4.73-1.43,7.21-1.43c1.82,0,3.52,0.25,5.1,0.75c1.58,0.5,2.9,1.14,3.98,1.93c1.08,0.79,1.93,1.66,2.55,2.61
		c0.62,0.95,0.93,1.84,0.93,2.67c0,1.16-0.29,2.28-0.87,3.36s-1.35,2.11-2.3,3.11c-0.95,1-2.03,1.99-3.23,2.99
		C1076.13,857.79,1074.95,858.74,1073.79,859.65z"/>
	<path class="st0" d="M1151.15,860.53c-3.07,5.97-5.97,11.8-8.71,17.48s-5.31,10.92-7.71,15.73c-0.99,1.99-1.97,4.29-2.92,6.9
		c-0.95,2.61-1.43,4.91-1.43,6.9c0,1.16,0.27,2.07,0.81,2.74c0.54,0.66,1.43,1,2.67,1c1.74,0,3.94-0.52,6.59-1.55
		c2.65-1.04,5.51-2.4,8.58-4.1s6.3-3.65,9.7-5.85c3.4-2.2,6.74-4.48,10.01-6.84c3.28-2.36,6.41-4.73,9.39-7.09s5.64-4.54,7.96-6.53
		c1.33-0.91,2.57-1.37,3.73-1.37c1.41,0,2.57,0.62,3.48,1.87s1.37,2.82,1.37,4.73s-0.46,3.86-1.37,5.85s-2.57,3.94-4.98,5.85
		c-5.39,4.89-10.84,9.54-16.36,13.93s-10.99,8.27-16.42,11.63c-5.43,3.36-10.8,6.03-16.11,8.02c-5.31,1.99-10.45,2.99-15.42,2.99
		c-3.32,0-6.09-0.44-8.33-1.31c-2.24-0.87-4.04-2.07-5.41-3.61c-1.37-1.53-2.34-3.32-2.92-5.35c-0.58-2.03-0.87-4.21-0.87-6.53
		c0-4.15,0.7-8.46,2.11-12.94c1.41-4.48,2.99-8.5,4.73-12.06c2.49-5.14,4.95-10.24,7.4-15.3s4.83-9.91,7.15-14.55h-5.35
		c-4.64,0-7.84-0.75-9.58-2.24c-1.74-1.49-2.61-3.19-2.61-5.1c0-0.83,0.27-1.84,0.81-3.05c0.54-1.2,1.33-2.32,2.36-3.36
		s2.3-1.93,3.79-2.67s3.19-1.12,5.1-1.12h13.43l26.24-52.12c1.66-3.15,3.71-5.41,6.16-6.78c2.45-1.37,5-2.05,7.65-2.05
		c2.49,0,4.77,0.66,6.84,1.99s3.11,3.52,3.11,6.59c0,1.58-0.35,3.17-1.06,4.79s-1.64,3.5-2.8,5.66c-0.75,1.41-1.66,3.09-2.74,5.04
		s-2.22,4.02-3.42,6.22c-1.2,2.2-2.45,4.5-3.73,6.9c-1.29,2.4-2.55,4.73-3.79,6.97c-2.82,5.31-5.8,10.9-8.96,16.79h40.55
		c1.99,0,3.81,0.1,5.47,0.31c1.66,0.21,3.09,0.62,4.29,1.24c1.2,0.62,2.14,1.47,2.8,2.55s1,2.53,1,4.35c0,0.91-0.15,1.82-0.44,2.74
		c-0.29,0.91-0.83,1.74-1.62,2.49c-0.79,0.75-1.87,1.37-3.23,1.87c-1.37,0.5-3.13,0.83-5.29,1L1151.15,860.53z"/>
	<path class="st0" d="M1346.68,842.61c-1.33,1.08-2.67,1.84-4.04,2.3s-2.72,0.68-4.04,0.68c-1.49,0-2.92-0.27-4.29-0.81
		s-2.57-1.24-3.61-2.11s-1.84-1.84-2.43-2.92c-0.58-1.08-0.87-2.2-0.87-3.36c0-1,0.66-2.3,1.99-3.92c1.33-1.62,2.76-3.4,4.29-5.35
		s2.96-4.02,4.29-6.22c1.33-2.2,1.99-4.37,1.99-6.53c0-2.49-0.89-4.5-2.67-6.03c-1.78-1.53-3.96-2.3-6.53-2.3
		c-3.32,0-6.9,0.91-10.76,2.74s-7.42,4.17-10.7,7.03c-3.28,2.86-6.01,6.03-8.21,9.52c-2.2,3.48-3.3,6.88-3.3,10.2
		c0,5.97,2.45,11.94,7.34,17.91l21.02,25.75c1.99-2.49,3.79-5,5.41-7.52s3.01-4.79,4.17-6.78h21.64
		c-2.24,5.39-4.98,10.72-8.21,15.98c-3.23,5.27-7.05,10.51-11.44,15.73c1.33,2.07,2.57,3.98,3.73,5.72
		c1.16,1.74,2.36,3.54,3.61,5.41c1.24,1.87,2.63,3.88,4.17,6.03c1.53,2.16,3.38,4.64,5.53,7.46c0.66,0.91,1.16,1.87,1.49,2.86
		c0.33,0.99,0.5,1.91,0.5,2.74c0,2.65-0.93,4.91-2.8,6.78c-1.87,1.87-4.13,2.8-6.78,2.8c-1.82,0-3.71-0.54-5.66-1.62
		c-1.95-1.08-3.88-2.86-5.78-5.35l-12.81-17.41c-9.12,6.8-15.88,11.44-20.27,13.93c-8.62,4.81-16.5,7.21-23.63,7.21
		c-4.31,0-8.35-0.64-12.13-1.93c-3.77-1.29-7.07-3.11-9.89-5.47c-2.82-2.36-5.04-5.24-6.65-8.64s-2.43-7.21-2.43-11.44
		c0-3.07,1.06-6.65,3.17-10.76c2.11-4.1,4.85-8.25,8.21-12.44c3.36-4.19,7.07-8.19,11.13-12s8.08-7.01,12.06-9.58
		c1.08-0.66,1.62-1.2,1.62-1.62c-2.82-4.39-4.87-8.67-6.16-12.81c-1.29-4.15-1.93-8.21-1.93-12.19c0-4.39,0.83-8.62,2.49-12.69
		c1.66-4.06,3.94-7.84,6.84-11.32c2.9-3.48,6.28-6.65,10.14-9.52c3.86-2.86,7.94-5.31,12.25-7.34c4.31-2.03,8.75-3.59,13.31-4.66
		c4.56-1.08,9.04-1.62,13.43-1.62c6.3,0,12.02,1.26,17.16,3.79c5.14,2.53,9.04,6.61,11.69,12.25c1.08,2.24,1.62,4.68,1.62,7.34
		c0,2.99-0.62,5.97-1.87,8.96s-2.78,5.87-4.6,8.64c-1.82,2.78-3.79,5.41-5.91,7.9C1350.47,838.51,1348.5,840.71,1346.68,842.61z
		 M1285.98,884.78c-10.2,8.37-15.3,14.76-15.3,19.15c0,2.4,0.95,4.08,2.86,5.04c1.91,0.95,4.1,1.43,6.59,1.43
		c4.15,0,8.37-1.08,12.69-3.23c1.41-0.66,3.69-2.03,6.84-4.1c3.15-2.07,7.21-4.89,12.19-8.46l-15.05-19.9
		C1293.32,878.27,1289.71,881.63,1285.98,884.78z"/>
	<path class="st0" d="M1636.48,778.31c0,1.49-0.56,3.59-1.68,6.28s-2.69,5.33-4.73,7.9c-2.03,2.57-4.48,4.81-7.34,6.72
		s-6.03,2.86-9.52,2.86c-0.83,0-1.87-0.06-3.11-0.19s-2.47-0.44-3.67-0.93c-1.2-0.5-2.22-1.2-3.05-2.11
		c-0.83-0.91-1.24-2.11-1.24-3.61c0-0.75,0.37-1.8,1.12-3.17c0.75-1.37,1.55-2.84,2.43-4.42c0.87-1.58,1.68-3.11,2.43-4.6
		c0.75-1.49,1.12-2.74,1.12-3.73c0-2.82-1.99-4.87-5.97-6.16c-3.98-1.29-10.66-1.93-20.03-1.93c-9.37,0.33-17.83,0.89-25.37,1.68
		c-7.55,0.79-14.51,1.78-20.9,2.99c-6.38,1.2-12.36,2.59-17.91,4.17c-5.56,1.58-11.03,3.25-16.42,5.04
		c-5.39,1.78-10.84,3.69-16.36,5.72c-5.51,2.03-11.38,4.08-17.6,6.16c-0.58,0.17-1.14,0.33-1.68,0.5c-0.54,0.17-1.02,0.25-1.43,0.25
		c-1.33,0-2.53-0.29-3.61-0.87c-1.08-0.58-2.01-1.37-2.8-2.36c-0.79-1-1.41-2.11-1.87-3.36c-0.46-1.24-0.68-2.53-0.68-3.86
		c0-2.16,1.74-4.58,5.22-7.28c3.48-2.69,8.25-5.41,14.3-8.15c6.05-2.74,13.18-5.41,21.39-8.02c8.21-2.61,17.06-4.93,26.56-6.97
		c9.49-2.03,19.4-3.65,29.73-4.85c10.32-1.2,20.63-1.8,30.91-1.8c8.87,0,16.54,0.7,23.01,2.11c6.47,1.41,11.82,3.36,16.05,5.85
		c4.23,2.49,7.38,5.45,9.45,8.89S1636.4,774.25,1636.48,778.31z M1491.08,923.83c-1.24,2.49-2.74,4.68-4.48,6.59
		c-1.74,1.91-3.61,3.48-5.6,4.73c-1.99,1.24-4.02,2.18-6.09,2.8c-2.07,0.62-4.02,0.93-5.85,0.93c-2.65,0-4.89-0.68-6.72-2.05
		s-2.74-3.38-2.74-6.03c0-0.91,0.1-1.93,0.31-3.05c0.21-1.12,0.64-2.34,1.31-3.67c6.3-13.02,12.58-25.54,18.84-37.56
		c6.26-12.02,12.31-23.26,18.16-33.71c5.85-10.45,11.38-19.96,16.6-28.55c5.22-8.58,9.97-15.92,14.24-22.02s7.92-10.8,10.95-14.12
		c3.03-3.32,5.24-4.98,6.65-4.98c2.9,0,5.06,0.83,6.47,2.49c1.41,1.66,2.11,3.61,2.11,5.85c0,1.82-0.46,3.65-1.37,5.47
		c-2.07,4.23-4.42,9.02-7.03,14.37s-5.37,11.03-8.27,17.04c-2.9,6.01-5.93,12.23-9.08,18.66c-3.15,6.43-6.26,12.81-9.33,19.15
		c-3.07,6.34-6.07,12.48-9.02,18.41c-2.94,5.93-5.68,11.42-8.21,16.48s-4.81,9.56-6.84,13.5
		C1494.09,918.51,1492.41,921.6,1491.08,923.83z"/>
	<path class="st0" d="M1692.21,893.86c-1.49,1.41-3.48,3.36-5.97,5.85c-2.49,2.49-5.33,5.18-8.52,8.08
		c-3.19,2.9-6.59,5.83-10.2,8.77c-3.61,2.94-7.3,5.62-11.07,8.02s-7.48,4.37-11.13,5.91c-3.65,1.53-7.09,2.3-10.32,2.3
		c-2.9,0-5.39-0.62-7.46-1.87c-2.07-1.24-3.79-2.86-5.16-4.85s-2.38-4.25-3.05-6.78s-0.99-5.12-0.99-7.77
		c0-1.74,0.12-3.46,0.37-5.16s0.66-3.3,1.24-4.79c-2.57,3.48-5.49,7.07-8.77,10.76c-3.28,3.69-6.8,7.05-10.57,10.07
		c-3.77,3.03-7.71,5.51-11.82,7.46c-4.1,1.95-8.27,2.92-12.5,2.92c-2.16,0-4.66-0.44-7.52-1.31c-2.86-0.87-5.58-2.3-8.15-4.29
		c-2.57-1.99-4.73-4.56-6.47-7.71s-2.61-7.01-2.61-11.57c0-3.4,0.52-7.46,1.55-12.19s2.61-9.64,4.73-14.74
		c2.11-5.1,4.81-10.14,8.08-15.11c3.28-4.98,7.15-9.43,11.63-13.37c4.48-3.94,9.58-7.13,15.3-9.58c5.72-2.45,12.11-3.67,19.15-3.67
		c3.65,0,6.84,0.46,9.58,1.37c2.74,0.91,5.06,1.91,6.97,2.99c2.16,1.33,4.06,2.78,5.72,4.35c1.41-0.75,2.86-1.45,4.35-2.11
		c1.24-0.58,2.55-1.1,3.92-1.55c1.37-0.46,2.55-0.68,3.54-0.68c3.15,0,5.72,0.87,7.71,2.61c1.99,1.74,2.99,3.65,2.99,5.72
		c0,0.58-0.04,1.04-0.12,1.37c-0.41,1.58-1.06,3.57-1.93,5.97c-0.87,2.4-1.84,5.08-2.92,8.02c-1.08,2.94-2.18,6.01-3.3,9.2
		c-1.12,3.19-2.14,6.32-3.05,9.39s-1.66,5.95-2.24,8.64c-0.58,2.69-0.87,5-0.87,6.9c0,2.49,0.41,4.54,1.24,6.16s2.24,2.43,4.23,2.43
		c1.24,0,2.72-0.39,4.42-1.18c1.7-0.79,3.54-1.84,5.53-3.17c1.99-1.33,4.04-2.84,6.16-4.54c2.11-1.7,4.17-3.42,6.16-5.16
		c4.64-4.15,9.58-8.87,14.8-14.18c1.33-1.08,2.61-1.62,3.86-1.62c1.66,0,3.05,0.81,4.17,2.43s1.68,3.42,1.68,5.41
		C1694.57,890.34,1693.78,892.28,1692.21,893.86z M1606.01,861.77c-3.9,0-7.67,0.99-11.32,2.99c-3.65,1.99-6.88,4.6-9.7,7.84
		c-2.82,3.23-5.06,6.86-6.72,10.88c-1.66,4.02-2.49,8.06-2.49,12.13c0,1.66,0.1,3.38,0.31,5.16s0.68,3.42,1.43,4.91
		c0.75,1.49,1.8,2.74,3.17,3.73s3.21,1.49,5.53,1.49c1.82,0,3.96-0.81,6.41-2.43s4.98-3.69,7.59-6.22s5.16-5.31,7.65-8.33
		c2.49-3.03,4.73-5.99,6.72-8.89c1.99-2.9,3.61-5.51,4.85-7.84c1.24-2.32,1.87-4.02,1.87-5.1c0-1.58-0.54-3.01-1.62-4.29
		c-1.08-1.29-2.4-2.38-3.98-3.3c-1.58-0.91-3.25-1.6-5.04-2.05C1608.89,862,1607.34,861.77,1606.01,861.77z"/>
	<path class="st0" d="M1814.6,893.86c-1.49,1.41-3.48,3.36-5.97,5.85c-2.49,2.49-5.33,5.18-8.52,8.08c-3.19,2.9-6.59,5.83-10.2,8.77
		c-3.61,2.94-7.3,5.62-11.07,8.02c-3.77,2.4-7.48,4.37-11.13,5.91c-3.65,1.53-7.09,2.3-10.32,2.3c-2.9,0-5.39-0.62-7.46-1.87
		c-2.07-1.24-3.79-2.86-5.16-4.85s-2.38-4.25-3.05-6.78c-0.66-2.53-0.99-5.12-0.99-7.77c0-1.74,0.12-3.46,0.37-5.16
		s0.66-3.3,1.24-4.79c-2.57,3.48-5.49,7.07-8.77,10.76c-3.28,3.69-6.8,7.05-10.57,10.07s-7.71,5.51-11.82,7.46s-8.27,2.92-12.5,2.92
		c-2.16,0-4.66-0.44-7.53-1.31s-5.58-2.3-8.15-4.29c-2.57-1.99-4.73-4.56-6.47-7.71s-2.61-7.01-2.61-11.57
		c0-3.4,0.52-7.46,1.55-12.19c1.04-4.73,2.61-9.64,4.73-14.74c2.11-5.1,4.81-10.14,8.08-15.11c3.28-4.98,7.15-9.43,11.63-13.37
		c4.48-3.94,9.58-7.13,15.3-9.58c5.72-2.45,12.11-3.67,19.15-3.67c3.65,0,6.84,0.46,9.58,1.37c2.74,0.91,5.06,1.91,6.97,2.99
		c2.16,1.33,4.06,2.78,5.72,4.35c1.41-0.75,2.86-1.45,4.35-2.11c1.24-0.58,2.55-1.1,3.92-1.55c1.37-0.46,2.55-0.68,3.54-0.68
		c3.15,0,5.72,0.87,7.71,2.61s2.99,3.65,2.99,5.72c0,0.58-0.04,1.04-0.12,1.37c-0.41,1.58-1.06,3.57-1.93,5.97
		c-0.87,2.4-1.84,5.08-2.92,8.02c-1.08,2.94-2.18,6.01-3.3,9.2c-1.12,3.19-2.14,6.32-3.05,9.39s-1.66,5.95-2.24,8.64
		c-0.58,2.69-0.87,5-0.87,6.9c0,2.49,0.41,4.54,1.24,6.16c0.83,1.62,2.24,2.43,4.23,2.43c1.24,0,2.72-0.39,4.42-1.18
		c1.7-0.79,3.54-1.84,5.53-3.17c1.99-1.33,4.04-2.84,6.16-4.54c2.11-1.7,4.17-3.42,6.16-5.16c4.64-4.15,9.58-8.87,14.8-14.18
		c1.33-1.08,2.61-1.62,3.86-1.62c1.66,0,3.05,0.81,4.17,2.43c1.12,1.62,1.68,3.42,1.68,5.41
		C1816.96,890.34,1816.17,892.28,1814.6,893.86z M1728.4,861.77c-3.9,0-7.67,0.99-11.32,2.99c-3.65,1.99-6.88,4.6-9.7,7.84
		c-2.82,3.23-5.06,6.86-6.72,10.88c-1.66,4.02-2.49,8.06-2.49,12.13c0,1.66,0.1,3.38,0.31,5.16c0.21,1.78,0.68,3.42,1.43,4.91
		c0.75,1.49,1.8,2.74,3.17,3.73s3.21,1.49,5.53,1.49c1.82,0,3.96-0.81,6.41-2.43c2.45-1.62,4.98-3.69,7.59-6.22
		c2.61-2.53,5.16-5.31,7.65-8.33c2.49-3.03,4.73-5.99,6.72-8.89c1.99-2.9,3.61-5.51,4.85-7.84c1.24-2.32,1.87-4.02,1.87-5.1
		c0-1.58-0.54-3.01-1.62-4.29c-1.08-1.29-2.4-2.38-3.98-3.3s-3.25-1.6-5.04-2.05C1731.28,862,1729.73,861.77,1728.4,861.77z"/>
	<path class="st0" d="M1822.56,893.73c-0.91,1.91-1.8,4.13-2.67,6.65c-0.87,2.53-1.31,4.79-1.31,6.78c0,1.24,0.25,2.24,0.75,2.99
		c0.5,0.75,1.45,1.12,2.86,1.12c1.74,0,3.92-0.52,6.53-1.55s5.43-2.4,8.46-4.1c3.03-1.7,6.18-3.65,9.45-5.85
		c3.28-2.2,6.53-4.48,9.76-6.84s6.32-4.73,9.27-7.09c2.94-2.36,5.58-4.54,7.9-6.53c0.66-0.58,1.45-1,2.36-1.24
		c0.91-0.25,1.7-0.37,2.36-0.37c1.66,0,3.03,0.58,4.1,1.74c1.08,1.16,1.62,2.69,1.62,4.6c0,1.74-0.58,3.69-1.74,5.85
		c-1.16,2.16-3.19,4.27-6.09,6.34c-5.31,4.89-10.66,9.54-16.04,13.93s-10.76,8.27-16.11,11.63c-5.35,3.36-10.66,6.03-15.92,8.02
		c-5.27,1.99-10.39,2.99-15.36,2.99c-3.4,0-6.24-0.46-8.52-1.37s-4.1-2.16-5.47-3.73c-1.37-1.58-2.34-3.44-2.92-5.6
		c-0.58-2.16-0.87-4.44-0.87-6.84c0-4.06,0.6-8.23,1.8-12.5c1.2-4.27,2.63-8.19,4.29-11.75c2.9-6.47,5.85-12.89,8.83-19.28
		c2.99-6.38,5.72-12.23,8.21-17.54l37.69-80.22c1.49-3.23,3.5-5.51,6.03-6.84s5.08-1.99,7.65-1.99c2.57,0,4.91,0.7,7.03,2.11
		c2.11,1.41,3.17,3.69,3.17,6.84c0,1.49-0.35,3.07-1.06,4.73c-0.7,1.66-1.6,3.44-2.67,5.35c-2.07,3.9-4.54,8.67-7.4,14.3
		s-5.93,11.77-9.2,18.41c-3.28,6.63-6.63,13.54-10.07,20.71c-3.44,7.17-6.8,14.16-10.07,20.96c-3.28,6.8-6.34,13.25-9.2,19.34
		S1824.63,889.26,1822.56,893.73z"/>
</g>
<g>
	<path class="st0" d="M522.54,709.33h-91.85v-417.4h91.85V709.33z"/>
	<path class="st0" d="M815.47,564.5c0,45.65-10.28,82.11-30.84,109.38c-20.56,27.27-48.33,40.9-83.29,40.9
		c-27,0-49.19-9.87-66.58-29.62v137.23h-91.58V415.31h85.6l2.72,27.17c17.57-21.74,40.67-32.61,69.29-32.61
		c36.23,0,64.4,13.36,84.51,40.08c20.11,26.73,30.16,63.45,30.16,110.19V564.5z M723.89,558.79c0-52.17-15.22-78.26-45.65-78.26
		c-21.74,0-36.24,7.79-43.48,23.37v115.76c7.97,16.3,22.65,24.46,44.02,24.46c29.17,0,44.2-25.18,45.11-75.54V558.79z"/>
	<path class="st0" d="M1012.3,709.33c-3.26-5.98-6.16-14.76-8.7-26.36c-16.85,21.2-40.4,31.79-70.65,31.79
		c-27.72,0-51.27-8.38-70.65-25.14c-19.39-16.75-29.08-37.81-29.08-63.18c0-31.88,11.78-55.98,35.33-72.28
		c23.55-16.3,57.79-24.46,102.72-24.46h28.26v-15.56c0-27.13-11.68-40.69-35.05-40.69c-21.74,0-32.61,10.74-32.61,32.22h-91.58
		c0-28.41,12.09-51.48,36.28-69.21c24.19-17.73,55.03-26.6,92.53-26.6c37.5,0,67.12,9.15,88.86,27.45
		c21.74,18.3,32.88,43.39,33.42,75.27v130.16c0.36,27,4.53,47.65,12.5,61.96v4.62H1012.3z M954.96,649.55
		c11.41,0,20.88-2.45,28.4-7.34c7.51-4.89,12.91-10.42,16.17-16.58v-47.01h-26.63c-31.89,0-47.83,14.31-47.83,42.94
		c0,8.33,2.81,15.08,8.42,20.24C939.1,646.97,946.26,649.55,954.96,649.55z"/>
	<path class="st0" d="M1239.31,599.82l-25.82,25.82v83.7h-91.58V291.67h91.58v221.74l9.24-12.23l69.02-85.87h109.78l-102.99,120.93
		l109.78,173.1h-104.89L1239.31,599.82z"/>
	<path class="st0" d="M1393.23,559.6c0-29.35,5.71-55.48,17.12-78.4c11.41-22.92,27.81-40.53,49.19-52.85
		c21.37-12.32,46.47-18.48,75.27-18.48c44.02,0,78.71,13.63,104.08,40.9c25.36,27.27,38.04,64.36,38.04,111.28v3.26
		c0,45.83-12.73,82.2-38.18,109.1c-25.45,26.9-59.92,40.35-103.4,40.35c-41.85,0-75.45-12.54-100.82-37.64
		c-25.37-25.09-39.04-59.1-41.03-102.04L1393.23,559.6z M1484.81,565.31c0,27.17,4.25,47.11,12.77,59.78
		c8.51,12.68,21.1,19.02,37.77,19.02c32.61,0,49.28-25.09,50-75.27v-9.24c0-52.72-16.85-79.08-50.54-79.08
		c-30.62,0-47.19,22.74-49.73,68.21L1484.81,565.31z"/>
</g>
<path class="st1" d="M408.16,709.33c-26.42-151.73-28.69-229.38-28.62-264.68c0,0,0.02-16.59,0.02-25.18
	c0-38.53-14.69-73.75-38.99-100.88c18.65-30.57,67.1-117.57,33.45-146.62c-33.04-28.53-96.24,31.36-119.66,95.42
	c-3.07-26.59-19.42-36.9-19.42-36.9c3.69,12-5.67,25.78-12.49,33.81c-1.77-0.05-3.53-0.13-5.31-0.13c-0.12,0-0.23,0.01-0.35,0.01
	c-1.59-9.43-11.25-20.39-11.25-20.39c-0.36,10.91-6.1,17.83-11.52,21.98c-4.67,0.64-9.26,1.48-13.79,2.48
	c-23.17-64.38-86.8-124.93-119.98-96.27C26.6,201.02,75.04,288.02,93.69,318.59C69.4,345.72,54.7,380.95,54.7,419.47
	c0,6.3,0.02,19.77,0.02,19.77c0.64,31.72-1.3,108.06-29.52,270.09h102.32l11.84-38.34c0,0,73.28-80.26,153.53,0v0l11.98,38.34
	h102.87"/>
<g>
	<path class="st2" d="M227.63,429.89c40.37,0,87.27,9.76,92.99,46.46c8.03,51.51-43.54,115.06-97.27,114.76
		c-55.18-0.3-106.79-65.97-96.48-118.04C133.75,438.31,183.81,429.89,227.63,429.89z"/>
	<path class="st3" d="M223.5,473.67c21.68,0,39.25,23.07,39.25,51.53c0,28.46-17.57,51.53-39.25,51.53s-39.25-23.07-39.25-51.53
		c0-15.17,4.99-28.81,12.94-38.24C204.15,478.7,213.38,473.67,223.5,473.67z"/>
	<path class="st1" d="M223.5,488.57c-2.57-1.38-9.4-5.38-14.53-1.43c-5.78,4.45-7.22,11.44-1.32,14.09
		c5.9,2.65,8.19-1.57,11.44,1.56c3.25,3.13,3.01,38.05,2.17,40.21c-0.84,2.17-2.71,6.08-8.49,6.32c-5.78,0.24-17.1-4.21-16.01-7.95
		c1.08-3.73,2.53-2.77,2.53-2.77s-0.36-1.26-2.29-0.06c-1.93,1.2-2.05,3.01-1.51,5.54c0.54,2.53,14.09,7.95,17.22,8.13
		c3.13,0.18,5.84-0.96,8.13-2.95c1.44-1.25,2.26-2.29,2.67-2.88c0.41,0.6,1.23,1.63,2.67,2.88c2.29,1.99,5,3.13,8.13,2.95
		c3.13-0.18,16.67-5.6,17.22-8.13c0.54-2.53,0.42-4.33-1.51-5.54c-1.93-1.2-2.29,0.06-2.29,0.06s1.44-0.96,2.53,2.77
		c1.08,3.73-10.23,8.19-16.01,7.95c-5.78-0.24-7.65-4.15-8.49-6.32c-0.84-2.17-1.08-37.08,2.17-40.21
		c3.25-3.13,5.54,1.08,11.44-1.56c5.9-2.65,4.45-9.63-1.32-14.09C232.9,483.19,226.07,487.2,223.5,488.57z"/>
	<g>
		<g>
			<ellipse class="st4" cx="122.02" cy="382" rx="24.64" ry="19.25"/>
			<circle class="st0" cx="122.02" cy="388.95" r="12.93"/>
		</g>
		<g>
			<ellipse class="st4" cx="312.24" cy="381.68" rx="24.64" ry="19.25"/>
			<circle class="st0" cx="312.24" cy="388.63" r="12.93"/>
		</g>
	</g>
</g>
<path class="st2" d="M162.28,273.07c-0.2-0.37-0.33-0.59-0.33-0.59c-25.19-67.18-80.24-98.91-92.37-81.18
	c-10.67,15.6,27.03,95.44,36.25,114.42C121.92,291.43,141.08,280.22,162.28,273.07z"/>
<path class="st2" d="M328.16,306.28c8.7-17.85,47.31-99.22,36.53-114.98c-12.13-17.73-67.18,14-92.37,81.18c0,0-0.18,0.31-0.45,0.84
	C293.03,280.57,312.13,291.9,328.16,306.28z"/>
</svg>
